Coordinates
version=1
nRows=4
nColumns=124
inDegrees=yes

Units are S.I. units (second, meters, Newtons, ...)
If the header above contains a line with 'inDegrees', this indicates whether rotational values are in degrees (yes) or radians (no).

endheader 
time	pelvis_tilt	pelvis_list	pelvis_rotation	pelvis_tx	pelvis_ty	pelvis_tz	hip_flexion_l	hip_adduction_l	hip_rotation_l	hip_flexion_r	hip_adduction_r	hip_rotation_r	knee_angle_l	knee_angle_r	ankle_angle_l	ankle_angle_r	subtalar_angle_l	subtalar_angle_r	mtp_angle_l	mtp_angle_r	lumbar_extension	lumbar_bending	lumbar_rotation	arm_flex_l	arm_add_l	arm_rot_l	arm_flex_r	arm_add_r	arm_rot_r	elbow_flex_l	elbow_flex_r	glut_med1_l/activation	glut_med2_l/activation	glut_med3_l/activation	glut_min1_l/activation	glut_min2_l/activation	glut_min3_l/activation	semimem_l/activation	semiten_l/activation	bifemlh_l/activation	bifemsh_l/activation	sar_l/activation	add_long_l/activation	add_brev_l/activation	add_mag1_l/activation	add_mag2_l/activation	add_mag3_l/activation	tfl_l/activation	pect_l/activation	grac_l/activation	glut_max1_l/activation	glut_max2_l/activation	glut_max3_l/activation	iliacus_l/activation	psoas_l/activation	quad_fem_l/activation	gem_l/activation	peri_l/activation	rect_fem_l/activation	vas_med_l/activation	vas_int_l/activation	vas_lat_l/activation	med_gas_l/activation	lat_gas_l/activation	soleus_l/activation	tib_post_l/activation	flex_dig_l/activation	flex_hal_l/activation	tib_ant_l/activation	per_brev_l/activation	per_long_l/activation	per_tert_l/activation	ext_dig_l/activation	ext_hal_l/activation	ercspn_l/activation	intobl_l/activation	extobl_l/activation	glut_med1_r/activation	glut_med2_r/activation	glut_med3_r/activation	glut_min1_r/activation	glut_min2_r/activation	glut_min3_r/activation	semimem_r/activation	semiten_r/activation	bifemlh_r/activation	bifemsh_r/activation	sar_r/activation	add_long_r/activation	add_brev_r/activation	add_mag1_r/activation	add_mag2_r/activation	add_mag3_r/activation	tfl_r/activation	pect_r/activation	grac_r/activation	glut_max1_r/activation	glut_max2_r/activation	glut_max3_r/activation	iliacus_r/activation	psoas_r/activation	quad_fem_r/activation	gem_r/activation	peri_r/activation	rect_fem_r/activation	vas_med_r/activation	vas_int_r/activation	vas_lat_r/activation	med_gas_r/activation	lat_gas_r/activation	soleus_r/activation	tib_post_r/activation	flex_dig_r/activation	flex_hal_r/activation	tib_ant_r/activation	per_brev_r/activation	per_long_r/activation	per_tert_r/activation	ext_dig_r/activation	ext_hal_r/activation	ercspn_r/activation	intobl_r/activation	extobl_r/activation	
          0.38447788	          4.26525570	         -4.50567561	         -8.84359443	          0.18538565	          1.01199567	          0.01878079	         22.28942913	         -3.87334519	          8.43730263	         -0.21976538	          9.21940083	          4.15598395	        -57.85867376	        -23.16006476	         12.37580693	         12.27000352	         -8.11623238	         -2.59967495	          1.27219346	         21.85269113	         -8.74846959	         13.28825879	        -12.44654524	          0.63949577	        -13.46450467	         10.60557239	        -33.84824863	        -21.60908498	          1.72588834	        113.38545235	          0.81363830	          0.46086432	          0.41551403	          0.34240931	          0.56297880	          0.56496385	          0.55622988	          0.27053736	          0.08912087	          0.22621820	          0.39870583	          0.64061507	          0.61642250	          0.57610964	          0.50013533	          0.43868129	          0.22917110	          0.63262738	          0.60284561	          0.48933813	          0.38661349	          0.16539463	          0.15138696	          0.56972838	          0.59104027	          0.50572475	          0.56790100	          0.52985802	          0.14697662	          0.17462689	          0.16717214	          0.20866705	          0.05395792	          0.15269551	          0.16774854	          0.29754479	          0.50571542	          0.49014989	          0.67304685	          0.60635781	          0.55467127	          0.63841229	          0.63643714	          0.63652481	          0.13175154	          0.23618766	          0.14246150	          0.93128705	          0.65116741	          0.30199279	          0.78273655	          0.73749087	          0.63194655	          0.49297662	          0.29127794	          0.42660061	          0.53187925	          0.62282708	          0.51893565	          0.40655264	          0.50535586	          0.53890034	          0.39027715	          0.78198872	          0.57828206	          0.47299605	          0.47367688	          0.30685917	          0.20709953	          0.83920406	          0.83218443	          0.18863232	          0.43213671	          0.37727305	          0.54913264	          0.44287885	          0.44353754	          0.37035073	          0.47560097	          0.54892580	          0.44548278	          0.62306914	          0.57478888	          0.57452905	          0.61330001	          0.51838181	          0.47015708	          0.56772558	          0.55610379	          0.57564971	          0.05596648	          0.30170014	          0.05053539	
          0.41651771	          4.31235070	         -4.39483095	         -9.56387001	          0.19761590	          1.01012868	          0.02059058	         24.00328939	         -3.94183934	         10.68992471	         -0.62992703	          8.95646966	          4.06114230	        -53.84991120	        -23.95085638	         12.55928030	         12.94619025	         -9.11816657	         -2.54858998	          0.80117147	         22.62201569	         -9.10667699	         13.08061899	        -11.56945883	          1.29468732	        -13.46384086	         11.15794655	        -32.26756251	        -21.51035044	          1.73091475	        114.76464080	          1.08828959	          0.47861626	          0.43455200	          0.39226117	          0.56117889	          0.56555755	          0.56278228	          0.17645973	          0.05828076	          0.14965517	          0.30315722	          0.63389843	          0.61421635	          0.56710076	          0.50071471	          0.44536115	          0.25586876	          0.62945821	          0.59765976	          0.46537284	          0.40774867	          0.20849419	          0.19187462	          0.61550818	          0.62831897	          0.52257346	          0.56775388	          0.54710271	          0.11410350	          0.15649276	          0.14617501	          0.21305549	          0.07086515	          0.16145791	          0.16204578	          0.33293386	          0.51247623	          0.50239059	          0.64953164	          0.62024976	          0.57371409	          0.62925398	          0.63696323	          0.62042597	          0.12907946	          0.24967032	          0.15342333	          0.92540899	          0.63576273	          0.29547901	          0.77926515	          0.73330046	          0.62633624	          0.49710825	          0.27888475	          0.42171961	          0.52677253	          0.62773383	          0.53878161	          0.41426008	          0.50431227	          0.53803588	          0.38267338	          0.78995075	          0.58257235	          0.47493957	          0.47330382	          0.30711849	          0.20684284	          0.85591597	          0.84964414	          0.19675817	          0.43536259	          0.37611864	          0.56325348	          0.44620452	          0.44736661	          0.37996532	          0.46979502	          0.54608150	          0.43032571	          0.61308244	          0.57005621	          0.56810499	          0.63033245	          0.53051128	          0.47853101	          0.57632720	          0.57322141	          0.58115995	          0.05027958	          0.29741663	          0.05041725	
          0.44855753	          4.33694334	         -4.31238530	        -10.25319859	          0.21010528	          1.00776347	          0.02203089	         25.46130563	         -4.05245840	         12.76276202	         -0.97150704	          8.69949314	          3.92349955	        -49.55404128	        -24.85354058	         11.45618715	         13.67774657	         -9.67799641	         -2.55452441	          0.52393976	         23.38796026	         -9.41890180	         12.86304009	        -10.60658369	          1.74596299	        -13.46574721	         11.42192833	        -29.78318032	        -21.18797575	          1.69558972	        115.11413029	          0.91534113	          0.50678693	          0.45243032	          0.43230445	          0.56242854	          0.56654709	          0.56567495	          0.11507912	          0.05008307	          0.10412911	          0.26082820	          0.62048946	          0.60684528	          0.56284854	          0.51110696	          0.46453849	          0.29860123	          0.62007281	          0.59242909	          0.46025953	          0.43276153	          0.25785685	          0.24036174	          0.63612622	          0.64571234	          0.53451104	          0.56159728	          0.55401156	          0.10880764	          0.15297933	          0.14122205	          0.21791522	          0.13164715	          0.21387852	          0.13537557	          0.34953838	          0.51724835	          0.50996348	          0.64828017	          0.62715241	          0.58413761	          0.62978070	          0.65627977	          0.61539486	          0.13195074	          0.25661859	          0.15076664	          0.92669671	          0.62693944	          0.28463727	          0.78011180	          0.73244493	          0.62444845	          0.50165277	          0.26964579	          0.41641896	          0.52159686	          0.63171432	          0.54710538	          0.41825397	          0.50081621	          0.53592678	          0.37512692	          0.79637456	          0.58561716	          0.47369658	          0.47175152	          0.30214769	          0.19874902	          0.86504258	          0.85748522	          0.19745357	          0.43584592	          0.37857428	          0.57602738	          0.45302866	          0.45608274	          0.40020624	          0.46177910	          0.54230797	          0.41309685	          0.60825717	          0.56681550	          0.56275030	          0.64946238	          0.53913917	          0.48189953	          0.58548497	          0.59106886	          0.58762696	          0.05075874	          0.27879963	          0.05055640	
          0.48059735	          4.33895681	         -4.26140832	        -10.92599561	          0.22307496	          1.00492946	          0.02310044	         26.72851624	         -4.15321549	         14.62264944	         -1.31576643	          8.43276716	          3.75308686	        -45.51392267	        -25.76953433	          9.39891541	         14.47063372	         -9.95435016	         -2.54581395	          0.35838261	         24.16904877	         -9.67852129	         12.64860483	         -9.57514921	          1.90688741	        -13.46364145	         11.32273019	        -26.45951789	        -20.64277019	          1.58116997	        114.47787542	          0.37111939	          0.53384436	          0.47056351	          0.46094720	          0.56895664	          0.57066625	          0.56699574	          0.07512385	          0.06745930	          0.09208356	          0.27621981	          0.61345697	          0.59789218	          0.55935381	          0.51934047	          0.48267744	          0.33790262	          0.61106507	          0.58858129	          0.47060898	          0.45388939	          0.30085583	          0.28289062	          0.64796789	          0.65728251	          0.53261309	          0.55113388	          0.55929435	          0.12765644	          0.16841524	          0.15636136	          0.22341033	          0.19201863	          0.27066215	          0.11316445	          0.36348580	          0.51697505	          0.50968808	          0.65358209	          0.64178608	          0.58763320	          0.62885108	          0.68838814	          0.61983477	          0.13616692	          0.27238266	          0.17030742	          0.92338368	          0.61834298	          0.27743335	          0.77905287	          0.73082059	          0.62375622	          0.50598090	          0.25709745	          0.41036819	          0.52215218	          0.63793830	          0.55313733	          0.41853273	          0.49634013	          0.53383029	          0.36905597	          0.80614569	          0.58781430	          0.47270950	          0.47259312	          0.30149992	          0.19269690	          0.88496123	          0.87617118	          0.19825624	          0.43782555	          0.38345991	          0.59109748	          0.46281113	          0.46935681	          0.42997773	          0.45226917	          0.53774106	          0.39454554	          0.61307393	          0.56687722	          0.56082869	          0.66742212	          0.53953899	          0.47650261	          0.59405962	          0.60589207	          0.59423923	          0.05029524	          0.25690054	          0.05056321	
